<svg id="Capa_1" enable-background="new 0 0 512 512" height="512" viewBox="0 0 512 512" width="512" xmlns="http://www.w3.org/2000/svg"><g><circle cx="256" cy="126.536" r="17"/><path d="m165.813 499.687c1.299 7.131 7.51 12.313 14.758 12.313h150.857c7.248 0 13.459-5.183 14.758-12.313l5.223-28.687h-190.818z"/><path d="m155.13 441h201.74l7.646-42h-217.032z"/><path d="m368 305h-97v-68.374l11.887 5.625c19.577 9.263 42.693-1.859 47.539-22.712l6.208-26.73c.238-1.029.963-1.897 1.986-2.381l25.139-11.896c19.716-9.331 25.419-34.393 11.778-51.201l-17.396-21.437c-.652-.804-.896-1.824-.67-2.8l6.208-26.73c4.867-20.954-11.183-41.002-32.957-41.002h-27.901c-1.201 0-2.347-.529-3.065-1.414-17.253-21.261-17.498-21.437-17.396-21.437-13.553-16.698-39.196-16.664-52.721 0l-17.395 21.435c-.72.886-1.865 1.416-3.066 1.416h-27.901c-21.768 0-37.825 20.043-32.957 41.001l6.208 26.732c.227.975-.018 1.995-.67 2.799l-17.395 21.436c-13.644 16.812-7.934 41.873 11.778 51.203l25.137 11.896c1.024.485 1.749 1.353 1.987 2.382l6.208 26.732c4.845 20.849 27.96 31.975 47.54 22.71l11.887-5.626v68.373h-97c-8.284 0-15 6.716-15 15v49h254v-49c0-8.284-6.716-15-15-15zm-159-178.464c0-25.916 21.084-47 47-47s47 21.084 47 47-21.084 47-47 47-47-21.084-47-47z"/></g></svg>